o COL_C8
v -50 150 310
v -50 150 300
v -79.99968 150 300
v -80 150 299.9999
v -80 150 310
v -80 150 300
v -49.9999 150 300
v -80 100.0004 300
v -50 100 300
v -80.00035 100 300
vn 0 1 0
vn 0 0 -1
usemtl COL_C8
f 1//1 2//1 3//1
f 1//1 4//1 5//1
f 6//2 7//2 8//2
f 2//2 9//2 10//2
o COL_8
v -80 150 300
v -80 100.001 300
v -80 150 310
v -80 100 299.9998
v -80 100 310
v -50 150 310
v -50 100 310
v -50 100 299.9998
v -50 100.001 300
v -50 150 300
v -49.99965 100 310
v -80.00011 150 310
v -50 100.0004 310
vn -1 0 0
vn 1 0 0
vn 0 0 1
usemtl COL_8
f 11//3 12//3 13//3
f 13//3 14//3 15//3
f 16//4 17//4 18//4
f 16//4 19//4 20//4
f 13//5 15//5 21//5
f 16//5 22//5 23//5
