o COL_C5
v 240 180 150
v 240 180 95
v 210.0003 180 95
v 210 180 94.99948
v 210 180 150
v 240 120 150
v 240 120 95.00007
v 240 119.9999 95
vn 0 1 0
vn 1 0 0
usemtl COL_C5
f 1//1 2//1 3//1
f 1//1 4//1 5//1
f 1//2 6//2 7//2
f 1//2 8//2 2//2
o COL_17
v 210 180 150
v 210 180 95
v 210 119.9999 95
v 210 120 95.00007
v 210 120 150
v 239.9997 120 150
v 240 180 150
v 210.0001 180 150
v 240 119.9995 150
vn -1 0 0
vn 0 0 1
usemtl COL_17
f 9//3 10//3 11//3
f 9//3 12//3 13//3
f 9//4 13//4 14//4
f 15//4 16//4 17//4
