o COL_17
v 110 130 140
v 70 130 140
v 110 160 140
v 70 160 140
v 70 130 80
v 70 80 80
v 70 80 149.9995
v 70 130 80.0002
v 70 79.99956 150.0003
v 110 130 80
v 110 80 80
v 69.99974 80 80
v 109.9999 130 80
v 70 80.0004 80
v -110 130 -140
v -70 130 -140
v -110 160 -140
v -70 160 -140
v -70 130 -80
v -70 80 -80
v -70 80 -149.9995
v -70 130 -80.0002
v -70 79.99956 -150.0003
v -110 130 -80
v -110 80 -80
v -69.99974 80 -80
v -109.9999 130 -80
v -70 80.0004 -80
vn 0 0 -1
vn -1 0 0
vn 0 0 1
vn 1 0 0
usemtl COL_17
f 1//1 2//1 3//1
f 2//1 4//1 3//1
f 5//2 6//2 7//2
f 2//2 8//2 9//2
f 10//1 11//1 12//1
f 5//1 13//1 14//1
f 15//3 16//3 17//3
f 16//3 18//3 17//3
f 19//4 20//4 21//4
f 16//4 22//4 23//4
f 24//3 25//3 26//3
f 19//3 27//3 28//3
o COL_C5
v 110 130 140
v 110 130 80
v 70 130 80
v 70 130 80.00001
v 70 130 140
v -110 130 -140
v -110 130 -80
v -70 130 -80
v -70 130 -80.00001
v -70 130 -140
vn 0 1 0
usemtl COL_C5
f 29//5 30//5 31//5
f 29//5 32//5 33//5
f 34//5 35//5 36//5
f 34//5 37//5 38//5
o COL_C8
v 110 160 150
v 70.00012 160 150
v 110 79.99934 150
v 70 80 150
v 109.9999 80 150
v 70 160.0007 150
v 110 130 140
v 110 160 140
v 110 160 150.0001
v 110 159.9997 150
v 110 80.00102 150
v 110 80.00026 80
v 110 130 80
v 110 80 150.0002
v 110 80 79.99969
v -110 160 -150
v -70.00012 160 -150
v -110 79.99934 -150
v -70 80 -150
v -109.9999 80 -150
v -70 160.0007 -150
v -110 130 -140
v -110 160 -140
v -110 160 -150.0001
v -110 159.9997 -150
v -110 80.00102 -150
v -110 80.00026 -80
v -110 130 -80
v -110 80 -150.0002
v -110 80 -79.99969
vn 0 0 1
vn 1 0 0
vn 0 0 -1
vn -1 0 0
usemtl COL_C8
f 39//6 40//6 41//6
f 42//6 43//6 44//6
f 45//7 46//7 47//7
f 45//7 48//7 49//7
f 45//7 50//7 51//7
f 45//7 52//7 53//7
f 54//8 55//8 56//8
f 57//8 58//8 59//8
f 60//9 61//9 62//9
f 60//9 63//9 64//9
f 60//9 65//9 66//9
f 60//9 67//9 68//9
o COL_8
v 70 130 140
v 70 80.00621 149.999
v 70 160.0011 140
v 70 80 150
v 70 160 150
v 70 160 140.0004
v 110 160 150
v 110 160 140
v 70.00082 160 140
v 70 160 139.9998
v -70 130 -140
v -70 80.00621 -149.999
v -70 160.0011 -140
v -70 80 -150
v -70 160 -150
v -70 160 -140.0004
v -110 160 -150
v -110 160 -140
v -70.00082 160 -140
v -70 160 -139.9998
vn -1 0 0
vn 0 1 0
vn 1 0 0
usemtl COL_8
f 69//10 70//10 71//10
f 72//10 73//10 74//10
f 75//11 76//11 77//11
f 75//11 78//11 73//11
f 79//12 80//12 81//12
f 82//12 83//12 84//12
f 85//11 86//11 87//11
f 85//11 88//11 83//11
