o COL_C5
v -40 170 -30
v -40 130 -30
v -40 170 30.00003
v -40 130 30
v -40 170 30
v 40 170 30.00001
v 40 170 -30
v 39.99999 170 30
v 40 170 30
v 40 130 30
v 40 130 -29.99999
v 40 130 -30
v 40.00091 130 30
v -40.00066 170 30
v 40 130.0001 30
v 40 169.9995 -30
v 40.00066 170 -30
v -40 130.0001 -30
v -39.99999 130 30
v -40 130 30.00001
v 25 200.0003 30
v 25 170 30
v 40 200 30
v 25.00017 200 30
v 25 200 0
v 25 200 30
v 39.99983 200 30
v 40 200 30.00034
v 40 200 0
v 39.99995 200 0
v 25 169.9998 0
v 40 170 0
v 25.00017 170 0
v 40 170 0.0001354218
v 40 199.9999 30
v 40 200 29.99986
v 40 170.0001 0
v 25 170 0
v -57.5 160 117.5
v -57.5 130 117.5
v -42.50017 130 117.5
v -42.5 129.9997 117.5
v -42.5 160 117.5
v -42.50005 160 117.5
v -57.5 160 87.49976
v -42.5 160 87.5
v -57.49983 160 87.5
v -57.5 160 87.5
v -42.50005 160 87.5
v -57.5 129.9998 87.5
v -42.5 130 87.5
v -57.49983 130 87.5
v -42.5 130 117.5
v -57.5 130 87.5
v -57.5 160 87.50014
v -57.5 130.0001 117.5
v -25 200.0003 -30
v -25 170 -30
v -40 200 -30
v -25.00017 200 -30
v -25 200 0
v -25 200 -30
v -39.99983 200 -30
v -40 200 -30.00034
v -40 200 0
v -39.99995 200 0
v -25 169.9998 0
v -40 170 0
v -25.00017 170 0
v -40 170 -0.0001354218
v -40 199.9999 -30
v -40 200 -29.99986
v -40 170.0001 0
v -25 170 0
v 57.5 160 -117.5
v 57.5 130 -117.5
v 42.50017 130 -117.5
v 42.5 129.9997 -117.5
v 42.5 160 -117.5
v 42.50005 160 -117.5
v 57.5 160 -87.49976
v 42.5 160 -87.5
v 57.49983 160 -87.5
v 57.5 160 -87.5
v 42.50005 160 -87.5
v 57.5 129.9998 -87.5
v 42.5 130 -87.5
v 57.49983 130 -87.5
v 42.5 130 -117.5
v 57.5 130 -87.5
v 57.5 160 -87.50014
v 57.5 130.0001 -117.5
vn -1 0 0
vn 0 1 0
vn 1 0 0
vn 0 0 1
vn 0 0 -1
vn 0 -1 0
usemtl COL_C5
f 1//1 2//1 3//1
f 2//1 4//1 5//1
f 1//2 6//2 7//2
f 1//2 5//2 8//2
f 9//3 10//3 11//3
f 9//3 12//3 7//3
f 5//4 4//4 13//4
f 9//4 14//4 15//4
f 2//5 16//5 12//5
f 1//5 17//5 18//5
f 12//6 10//6 19//6
f 2//6 12//6 20//6
f 9//4 21//4 22//4
f 9//4 23//4 24//4
f 25//2 26//2 27//2
f 25//2 28//2 29//2
f 25//5 30//5 31//5
f 29//5 32//5 33//5
f 9//3 34//3 35//3
f 29//3 36//3 37//3
f 25//1 38//1 22//1
f 25//1 22//1 26//1
f 39//4 40//4 41//4
f 39//4 42//4 43//4
f 39//2 44//2 45//2
f 43//2 46//2 47//2
f 48//5 49//5 50//5
f 46//5 51//5 52//5
f 43//3 53//3 51//3
f 43//3 51//3 46//3
f 48//1 54//1 40//1
f 39//1 55//1 56//1
f 1//5 57//5 58//5
f 1//5 59//5 60//5
f 61//2 62//2 63//2
f 61//2 64//2 65//2
f 61//4 66//4 67//4
f 65//4 68//4 69//4
f 1//1 70//1 71//1
f 65//1 72//1 73//1
f 61//3 74//3 58//3
f 61//3 58//3 62//3
f 75//5 76//5 77//5
f 75//5 78//5 79//5
f 75//2 80//2 81//2
f 79//2 82//2 83//2
f 84//4 85//4 86//4
f 82//4 87//4 88//4
f 79//1 89//1 87//1
f 79//1 87//1 82//1
f 84//3 90//3 76//3
f 75//3 91//3 92//3
