o COL_17
v 130 180 -80
v 130 130.001 -80
v 130 180 -69.99999
v 130 180 -70
v 130 130 -80.00021
v 130 130 -70
v 140 190 -70.00005
v 140 190 -80
v 140 190 -70
v 170 180 -70
v 170 130 -70
v 170 130 -80.00021
v 170 130.001 -80
v 170 180 -80
v 130 129.9999 -70
v 149.9999 180 -70
v 160 190 -70
v 150.0001 180 -70
v 170 129.9999 -70
v 150 180 -70
v 130.0001 130 -70
v 169.9999 130 -70
v 150 180 -80
v 170 129.9997 -80
v 149.9999 180 -80
v 130 129.9999 -80
v 160 190 -80
v 169.9999 180 -80
v 169.9999 130 -80
v 130.0001 130 -80
v 160 190 -79.99995
v 140 190 -79.99995
v 160 190 -70.00005
v 150 180 -79.99996
v 70 230 10
v 70 180.001 10
v 80.00001 230 10
v 80 230 10
v 69.99979 180 10
v 80 180 10
v 80.00005 235.447 6.806231
v 70 235.447 6.806231
v 80 235.447 6.806246
v 80 230 -30
v 80 180 -30
v 69.99979 180 -30
v 70 180.001 -30
v 70 230 -30
v 80 179.9999 10
v 80 230 -9.999929
v 80 235.447 -26.7054
v 80 238.223 -19.99999
v 80 235.447 -13.06754
v 80 230 -10.00007
v 80 179.9999 -30
v 80 230 -10
v 80 235.447 -6.932515
v 80 235.447 6.806004
v 80 230 -9.999832
v 80 235.447 6.806231
v 80 180 9.999891
v 80 180 -29.99989
v 70 230 -10
v 70 179.9997 -30
v 70 235.447 6.806242
v 70 235.447 -6.932804
v 70 235.4469 -6.932604
v 70 230 -10.00005
v 70 230 -9.999929
v 70 179.9999 10
v 70 235.447 -13.0676
v 70 238.223 -20.00004
v 70 235.447 -26.70543
v 70 180 -29.99989
v 70 180 9.999891
v 70 235.447 -26.7054
v 70 238.223 -19.99995
v 70.00006 238.223 -19.99999
v 70 235.447 -6.9325
v 70 238.223 3.147125E-05
v 79.99999 235.447 -6.9325
v 80 235.447 -6.9325
v 70.00009 238.223 -2.527237E-05
v 80 238.223 -2.574921E-05
v 80.00011 238.223 -19.99999
v 70 238.223 -19.99999
v 80 235.447 -13.0676
v 80 238.2229 -19.99991
v 70 235.447 -6.932507
v 69.99998 235.447 -6.9325
v 70 235.447 6.80621
v 79.99995 238.223 -1.859665E-05
v 70 238.223 -1.811981E-05
v 80 235.447 6.80621
v 80 238.2231 -5.38826E-05
v 70 235.447 6.806159
v 70 238.223 -1.478195E-05
v 80 238.223 -1.430511E-05
v 80 235.447 6.80616
v 70 235.447 -26.70541
v 70.00002 235.447 -26.70541
v 80 235.447 -26.70541
v 70 235.447 -13.06761
v 70 235.447 -26.70544
v 70 235.447 -26.70539
v 70 230 -29.99996
v 80 235.447 -13.06759
v 69.99994 235.447 -13.06759
v 70 235.4469 -13.06757
v 80 235.447 -26.70542
v 80 235.447 -13.06775
v 80 235.447 -13.06772
v 80 230 -10.00011
v 80 180.001 -30
v 80 230 -19.99999
v 80 180 -20
v 80 229.999 -20
v 87.5 240 -19.99994
v 87.5 240 -30
v 80 230 -20
v 87.49995 239.9999 -20
v 110 230 -20
v 110 180 -20
v 110 180 -30.00021
v 110 180.001 -30
v 110 230 -30
v 95 230 -20
v 80 180.0002 -20
v 102.5 240 -20
v 95.00005 230 -20
v 110 180.0004 -20
v 87.5 240 -20
v 79.99995 180 -20
v 110.0001 180 -20
v 95 230 -30
v 110 180.0002 -30
v 94.99995 230 -30
v 80 180.0004 -30
v 102.5 240 -30
v 94.99995 229.9996 -30
v 109.9999 180 -30
v 102.5 239.9999 -30
v 102.5 240 -30.00006
v 87.50005 239.9999 -30
v 87.5 240 -30.00006
v 102.5 240 -19.99994
v 102.4999 239.9999 -20
v 95 230 -29.99998
v -130 180 80
v -130 130.001 80
v -130 180 69.99999
v -130 180 70
v -130 130 80.00021
v -130 130 70
v -140 190 70.00005
v -140 190 80
v -140 190 70
v -170 180 70
v -170 130 70
v -170 130 80.00021
v -170 130.001 80
v -170 180 80
v -130 129.9999 70
v -149.9999 180 70
v -160 190 70
v -150.0001 180 70
v -170 129.9999 70
v -150 180 70
v -130.0001 130 70
v -169.9999 130 70
v -150 180 80
v -170 129.9997 80
v -149.9999 180 80
v -130 129.9999 80
v -160 190 80
v -169.9999 180 80
v -169.9999 130 80
v -130.0001 130 80
v -160 190 79.99995
v -140 190 79.99995
v -160 190 70.00005
v -150 180 79.99996
v -70 230 -10
v -70 180.001 -10
v -80.00001 230 -10
v -80 230 -10
v -69.99979 180 -10
v -80 180 -10
v -80.00005 235.447 -6.806231
v -70 235.447 -6.806231
v -80 235.447 -6.806246
v -80 230 30
v -80 180 30
v -69.99979 180 30
v -70 180.001 30
v -70 230 30
v -80 179.9999 -10
v -80 230 9.999929
v -80 235.447 26.7054
v -80 238.223 19.99999
v -80 235.447 13.06754
v -80 230 10.00007
v -80 179.9999 30
v -80 230 10
v -80 235.447 6.932515
v -80 235.447 -6.806004
v -80 230 9.999832
v -80 235.447 -6.806231
v -80 180 -9.999891
v -80 180 29.99989
v -70 230 10
v -70 179.9997 30
v -70 235.447 -6.806242
v -70 235.447 6.932804
v -70 235.4469 6.932604
v -70 230 10.00005
v -70 230 9.999929
v -70 179.9999 -10
v -70 235.447 13.0676
v -70 238.223 20.00004
v -70 235.447 26.70543
v -70 180 29.99989
v -70 180 -9.999891
v -70 235.447 26.7054
v -70 238.223 19.99995
v -70.00006 238.223 19.99999
v -70 235.447 6.9325
v -70 238.223 -3.147125E-05
v -79.99999 235.447 6.9325
v -80 235.447 6.9325
v -70.00009 238.223 2.527237E-05
v -80 238.223 2.574921E-05
v -80.00011 238.223 19.99999
v -70 238.223 19.99999
v -80 235.447 13.0676
v -80 238.2229 19.99991
v -70 235.447 6.932507
v -69.99998 235.447 6.9325
v -70 235.447 -6.80621
v -79.99995 238.223 1.859665E-05
v -70 238.223 1.811981E-05
v -80 235.447 -6.80621
v -80 238.2231 5.38826E-05
v -70 235.447 -6.806159
v -70 238.223 1.478195E-05
v -80 238.223 1.430511E-05
v -80 235.447 -6.80616
v -70 235.447 26.70541
v -70.00002 235.447 26.70541
v -80 235.447 26.70541
v -70 235.447 13.06761
v -70 235.447 26.70544
v -70 235.447 26.70539
v -70 230 29.99996
v -80 235.447 13.06759
v -69.99994 235.447 13.06759
v -70 235.4469 13.06757
v -80 235.447 26.70542
v -80 235.447 13.06775
v -80 235.447 13.06772
v -80 230 10.00011
v -80 180.001 30
v -80 230 19.99999
v -80 180 20
v -80 229.999 20
v -87.5 240 19.99994
v -87.5 240 30
v -80 230 20
v -87.49995 239.9999 20
v -110 230 20
v -110 180 20
v -110 180 30.00021
v -110 180.001 30
v -110 230 30
v -95 230 20
v -80 180.0002 20
v -102.5 240 20
v -95.00005 230 20
v -110 180.0004 20
v -87.5 240 20
v -79.99995 180 20
v -110.0001 180 20
v -95 230 30
v -110 180.0002 30
v -94.99995 230 30
v -80 180.0004 30
v -102.5 240 30
v -94.99995 229.9996 30
v -109.9999 180 30
v -102.5 239.9999 30
v -102.5 240 30.00006
v -87.50005 239.9999 30
v -87.5 240 30.00006
v -102.5 240 19.99994
v -102.4999 239.9999 20
v -95 230 29.99998
vn -1 0 0
vn -0.7071068 0.7071068 0
vn 1 0 0
vn 0 0 1
vn 0 0 -1
vn 0.7071068 0.7071068 0
vn 0 0.5058005 0.8626505
vn 0 0.5058008 0.8626503
vn 0 0.9239513 -0.3825103
vn 0 0.9239512 -0.3825103
vn 0 0.9283372 -0.3717391
vn -2.554181E-08 0.9283375 -0.3717383
vn 0 0.9283374 0.3717387
vn 0 0.9283374 0.3717389
vn 0 0.4906918 -0.8713332
vn 0 0.4906916 -0.8713334
vn 0 0.9259438 0.3776613
vn 0 0.9259437 0.3776614
vn 0 0.5175394 -0.8556593
vn 0 0.5175398 -0.8556591
vn 7.62769E-07 0.4907076 0.8713244
vn 0 0.4907075 0.8713244
vn -0.8 0.6 0
vn 0.8 0.6 0
vn -0.8000001 0.5999998 0
vn 0 0.5058005 -0.8626505
vn 0 0.5058008 -0.8626503
vn 0 0.9239513 0.3825103
vn 0 0.9239512 0.3825103
vn 0 0.9283372 0.3717391
vn 2.554181E-08 0.9283375 0.3717383
vn 0 0.9283374 -0.3717387
vn 0 0.9283374 -0.3717389
vn 0 0.4906918 0.8713332
vn 0 0.4906916 0.8713334
vn 0 0.9259438 -0.3776613
vn 0 0.9259437 -0.3776614
vn 0 0.5175394 0.8556593
vn 0 0.5175398 0.8556591
vn -7.62769E-07 0.4907076 -0.8713244
vn 0 0.4907075 -0.8713244
vn 0.8000001 0.5999998 0
usemtl COL_17
f 1//1 2//1 3//1
f 4//1 5//1 6//1
f 1//2 7//2 8//2
f 1//2 4//2 9//2
f 10//3 11//3 12//3
f 10//3 13//3 14//3
f 4//4 15//4 16//4
f 10//4 17//4 18//4
f 10//4 18//4 19//4
f 4//4 16//4 9//4
f 20//4 21//4 22//4
f 23//5 14//5 24//5
f 1//5 8//5 25//5
f 1//5 25//5 26//5
f 23//5 27//5 28//5
f 23//5 29//5 30//5
f 10//6 14//6 27//6
f 10//6 31//6 17//6
f 20//6 23//6 8//6
f 20//6 32//6 9//6
f 23//2 33//2 27//2
f 20//2 17//2 34//2
f 35//4 36//4 37//4
f 38//4 39//4 40//4
f 35//7 41//7 42//7
f 35//8 38//8 43//8
f 44//5 45//5 46//5
f 44//5 47//5 48//5
f 38//3 49//3 50//3
f 51//3 52//3 53//3
f 44//3 54//3 55//3
f 56//3 57//3 58//3
f 38//3 59//3 60//3
f 56//3 61//3 62//3
f 63//1 48//1 64//1
f 35//1 65//1 66//1
f 35//1 67//1 68//1
f 35//1 69//1 70//1
f 71//1 72//1 73//1
f 63//1 74//1 75//1
f 51//9 76//9 77//9
f 51//10 78//10 52//10
f 79//11 80//11 81//11
f 82//12 83//12 84//12
f 71//13 85//13 86//13
f 71//14 87//14 88//14
f 56//15 63//15 89//15
f 56//16 90//16 82//16
f 91//17 92//17 93//17
f 91//18 94//18 95//18
f 79//1 96//1 97//1
f 82//3 98//3 99//3
f 44//19 48//19 100//19
f 44//20 101//20 102//20
f 63//1 103//1 104//1
f 63//1 105//1 106//1
f 56//21 107//21 108//21
f 56//22 109//22 63//22
f 44//3 110//3 111//3
f 44//3 112//3 113//3
f 44//1 114//1 115//1
f 45//1 116//1 117//1
f 44//23 118//23 119//23
f 44//23 120//23 121//23
f 122//3 123//3 124//3
f 122//3 125//3 126//3
f 127//4 120//4 128//4
f 122//4 129//4 127//4
f 122//4 130//4 131//4
f 127//4 132//4 120//4
f 127//4 133//4 134//4
f 135//5 126//5 136//5
f 44//5 119//5 135//5
f 44//5 137//5 138//5
f 135//5 139//5 126//5
f 45//5 140//5 141//5
f 122//24 126//24 142//24
f 122//24 143//24 129//24
f 127//24 135//24 144//24
f 127//24 145//24 132//24
f 135//23 146//23 139//23
f 127//25 147//25 148//25
f 149//3 150//3 151//3
f 152//3 153//3 154//3
f 149//6 155//6 156//6
f 149//6 152//6 157//6
f 158//1 159//1 160//1
f 158//1 161//1 162//1
f 152//5 163//5 164//5
f 158//5 165//5 166//5
f 158//5 166//5 167//5
f 152//5 164//5 157//5
f 168//5 169//5 170//5
f 171//4 162//4 172//4
f 149//4 156//4 173//4
f 149//4 173//4 174//4
f 171//4 175//4 176//4
f 171//4 177//4 178//4
f 158//2 162//2 175//2
f 158//2 179//2 165//2
f 168//2 171//2 156//2
f 168//2 180//2 157//2
f 171//6 181//6 175//6
f 168//6 165//6 182//6
f 183//5 184//5 185//5
f 186//5 187//5 188//5
f 183//26 189//26 190//26
f 183//27 186//27 191//27
f 192//4 193//4 194//4
f 192//4 195//4 196//4
f 186//1 197//1 198//1
f 199//1 200//1 201//1
f 192//1 202//1 203//1
f 204//1 205//1 206//1
f 186//1 207//1 208//1
f 204//1 209//1 210//1
f 211//3 196//3 212//3
f 183//3 213//3 214//3
f 183//3 215//3 216//3
f 183//3 217//3 218//3
f 219//3 220//3 221//3
f 211//3 222//3 223//3
f 199//28 224//28 225//28
f 199//29 226//29 200//29
f 227//30 228//30 229//30
f 230//31 231//31 232//31
f 219//32 233//32 234//32
f 219//33 235//33 236//33
f 204//34 211//34 237//34
f 204//35 238//35 230//35
f 239//36 240//36 241//36
f 239//37 242//37 243//37
f 227//3 244//3 245//3
f 230//1 246//1 247//1
f 192//38 196//38 248//38
f 192//39 249//39 250//39
f 211//3 251//3 252//3
f 211//3 253//3 254//3
f 204//40 255//40 256//40
f 204//41 257//41 211//41
f 192//1 258//1 259//1
f 192//1 260//1 261//1
f 192//3 262//3 263//3
f 193//3 264//3 265//3
f 192//24 266//24 267//24
f 192//24 268//24 269//24
f 270//1 271//1 272//1
f 270//1 273//1 274//1
f 275//5 268//5 276//5
f 270//5 277//5 275//5
f 270//5 278//5 279//5
f 275//5 280//5 268//5
f 275//5 281//5 282//5
f 283//4 274//4 284//4
f 192//4 267//4 283//4
f 192//4 285//4 286//4
f 283//4 287//4 274//4
f 193//4 288//4 289//4
f 270//23 274//23 290//23
f 270//23 291//23 277//23
f 275//23 283//23 292//23
f 275//23 293//23 280//23
f 283//24 294//24 287//24
f 275//42 295//42 296//42
