o COL_17
v 110 130 140
v 70 130 140
v 110 160 140
v 70 160 140
v 110 130 80
v 110 80 80
v 69.99974 80 80
v 70 80.00032 80
v 70 130 80
vn 0 0 -1
usemtl COL_17
f 1//1 2//1 3//1
f 2//1 4//1 3//1
f 5//1 6//1 7//1
f 5//1 8//1 9//1
o COL_C5
v 110 130 140
v 110 130 80
v 70 130 80
v 70 130 80.00001
v 70 130 140
v 60 130 80
v 60 130 150.0007
v 70 130 79.99944
v 60.00002 130 150
v 60 130 150
v 70 130 150
vn 0 1 0
usemtl COL_C5
f 10//2 11//2 12//2
f 10//2 13//2 14//2
f 12//2 15//2 16//2
f 14//2 17//2 18//2
f 14//2 19//2 20//2
o COL_C8
v 70 130 150
v 110 160 150
v 70 160 150
v 110 130 140
v 110 160 140
v 110 160 150.0001
v 110 159.9997 150
v 110 80.00102 150
v 110 80.00026 80
v 110 130 80
v 110 80 150.0002
v 110 80 79.99969
v 59.99979 80 150
v 110.0003 80 150
v 110 80.00032 150
v 70 130 80
v 70 80 80
v 59.99979 80 80
v 60 80.00102 80
v 60 130 80
v 60 130 150
v 60 130 80.00023
v 60 79.99979 150
v 60 80 80
v 60 80 149.9995
v 60 80.00102 150
vn 0 0 1
vn 1 0 0
vn 0 0 -1
vn -1 0 0
usemtl COL_C8
f 21//3 22//3 23//3
f 24//4 25//4 26//4
f 24//4 27//4 28//4
f 24//4 29//4 30//4
f 24//4 31//4 32//4
f 21//3 33//3 34//3
f 21//3 35//3 22//3
f 36//5 37//5 38//5
f 36//5 39//5 40//5
f 41//6 42//6 43//6
f 40//6 44//6 45//6
f 21//3 41//3 46//3
o COL_8
v 70 130 140
v 70 130 150
v 70 159.9998 140
v 70 160 150
v 70 160 139.9999
v 110 160 150
v 110 160 140
v 70.00082 160 140
v 70 160 139.9998
vn -1 0 0
vn 0 1 0
usemtl COL_8
f 47//7 48//7 49//7
f 48//7 50//7 51//7
f 52//8 53//8 54//8
f 52//8 55//8 50//8
