o COL_17
v -170 180 80
v -170 120.0003 80
v -170 180 -30.0005
v -170 180 -30
v -170 120 80.00104
v -170 120 -30
v -210 120 -30
v -210 180 -30
v -170 120 80
v -210 180 80
v -210 120 80
v 170 180 -80
v 170 120.0003 -80
v 170 180 30.0005
v 170 180 30
v 170 120 -80.00104
v 170 120 30
v 210 120 30
v 210 180 30
v 170 120 -80
v 210 180 -80
v 210 120 -80
vn 1 0 0
vn 0 0 -1
vn 0 0 1
vn -1 0 0
usemtl COL_17
f 1//1 2//1 3//1
f 4//1 5//1 6//1
f 4//2 6//2 7//2
f 4//2 7//2 8//2
f 9//3 10//3 11//3
f 1//3 10//3 9//3
f 12//4 13//4 14//4
f 15//4 16//4 17//4
f 15//3 17//3 18//3
f 15//3 18//3 19//3
f 20//2 21//2 22//2
f 12//2 21//2 20//2
o COL_C5
v -170 180 80
v -210 180 -30.00058
v -210 180 80
v -170 180 -30
v -209.9998 180 -30
v 170 180 -80
v 210 180 30.00058
v 210 180 -80
v 170 180 30
v 209.9998 180 30
vn 0 1 0
usemtl COL_C5
f 23//5 24//5 25//5
f 23//5 26//5 27//5
f 28//5 29//5 30//5
f 28//5 31//5 32//5
o COL_4007
v -170 180 120
v -290 180 120
v -290 176.7156 120
v -290.0217 176.715 120
v -170 176.715 120
v -170 180 80
v -290 180 80
v -290 180 120.0004
v -289.9987 180 120
v -170 176.715 80
v -290.0217 176.715 80
v -290 176.7156 80
v -170 176.715 80.00044
v -170 180 119.9997
v -290 176.715 80
v -290 176.715 119.9997
v -290 176.715 120
v -290 180 80.00044
v -170 176.715 120.0004
v -170.0013 176.715 120
v 170 180 -120
v 290 180 -120
v 290 176.7156 -120
v 290.0217 176.715 -120
v 170 176.715 -120
v 170 180 -80
v 290 180 -80
v 290 180 -120.0004
v 289.9987 180 -120
v 170 176.715 -80
v 290.0217 176.715 -80
v 290 176.7156 -80
v 170 176.715 -80.00044
v 170 180 -119.9997
v 290 176.715 -80
v 290 176.715 -119.9997
v 290 176.715 -120
v 290 180 -80.00044
v 170 176.715 -120.0004
v 170.0013 176.715 -120
vn 0 0 1
vn 0 1 0
vn 0 0 -1
vn 1 0 0
vn -1 0 0
vn 0 -1 0
usemtl COL_4007
f 33//6 34//6 35//6
f 33//6 36//6 37//6
f 38//7 39//7 40//7
f 38//7 41//7 33//7
f 38//8 42//8 43//8
f 38//8 44//8 39//8
f 33//9 37//9 45//9
f 38//9 46//9 42//9
f 47//10 48//10 39//10
f 49//10 34//10 50//10
f 47//11 42//11 51//11
f 47//11 52//11 49//11
f 53//8 54//8 55//8
f 53//8 56//8 57//8
f 58//7 59//7 60//7
f 58//7 61//7 53//7
f 58//6 62//6 63//6
f 58//6 64//6 59//6
f 53//10 57//10 65//10
f 58//10 66//10 62//10
f 67//9 68//9 59//9
f 69//9 54//9 70//9
f 67//11 62//11 71//11
f 67//11 72//11 69//11
