o COL_C6
v -70 101.1 90
v -70 99 90
v 69.98462 99 90
v 70 98.99977 90
v 70 101.1 90
v 70 101.1 -90
v -70 98.99977 -90
v -70 101.1 -90
v 70 99 -90
v -69.98462 99 -90
v -70 101.1 -89.93633
v -70 98.99999 90
v -70 99 -90
v -70 99 89.93597
v 70 101.1 89.93633
v 70 98.99999 -90
v 70 99 90
v 70 99 -89.93597
v 70 101.1 -89.99968
v 70.00024 101.1 -90
vn 0 0 1
vn 0 0 -1
vn -1 0 0
vn 1 0 0
vn 0 1 0
usemtl COL_C6
f 1//1 2//1 3//1
f 1//1 4//1 5//1
f 6//2 7//2 8//2
f 6//2 9//2 10//2
f 1//3 11//3 12//3
f 8//3 13//3 14//3
f 6//4 15//4 16//4
f 5//4 17//4 18//4
f 1//5 5//5 19//5
f 1//5 20//5 8//5
