o COL_17
v 110 130 140
v 70 130 140
v 110 160 140
v 70 160 140
v 110 130 80
v 110 80 80
v 69.99974 80 80
v 70 80.00032 80
v 70 130 80
v -110 130 -140
v -70 130 -140
v -110 160 -140
v -70 160 -140
v -110 130 -80
v -110 80 -80
v -69.99974 80 -80
v -70 80.00032 -80
v -70 130 -80
vn 0 0 -1
vn 0 0 1
usemtl COL_17
f 1//1 2//1 3//1
f 2//1 4//1 3//1
f 5//1 6//1 7//1
f 5//1 8//1 9//1
f 10//2 11//2 12//2
f 11//2 13//2 12//2
f 14//2 15//2 16//2
f 14//2 17//2 18//2
o COL_C5
v 110 130 140
v 110 130 80
v 70 130 80
v 70 130 80.00001
v 70 130 140
v 60 130 80
v 60 130 150.0007
v 70 130 79.99944
v 60.00002 130 150
v 60 130 150
v 70 130 150
v -110 130 -140
v -110 130 -80
v -70 130 -80
v -70 130 -80.00001
v -70 130 -140
v -60 130 -80
v -60 130 -150.0007
v -70 130 -79.99944
v -60.00002 130 -150
v -60 130 -150
v -70 130 -150
vn 0 1 0
usemtl COL_C5
f 19//3 20//3 21//3
f 19//3 22//3 23//3
f 21//3 24//3 25//3
f 23//3 26//3 27//3
f 23//3 28//3 29//3
f 30//3 31//3 32//3
f 30//3 33//3 34//3
f 32//3 35//3 36//3
f 34//3 37//3 38//3
f 34//3 39//3 40//3
o COL_C8
v 70 130 150
v 110 160 150
v 70 160 150
v 110 130 140
v 110 160 140
v 110 160 150.0001
v 110 159.9997 150
v 110 80.00102 150
v 110 80.00026 80
v 110 130 80
v 110 80 150.0002
v 110 80 79.99969
v 59.99979 80 150
v 110.0003 80 150
v 110 80.00032 150
v 70 130 80
v 70 80 80
v 59.99979 80 80
v 60 80.00102 80
v 60 130 80
v 60 130 150
v 60 130 80.00023
v 60 79.99979 150
v 60 80 80
v 60 80 149.9995
v 60 80.00102 150
v -70 130 -150
v -110 160 -150
v -70 160 -150
v -110 130 -140
v -110 160 -140
v -110 160 -150.0001
v -110 159.9997 -150
v -110 80.00102 -150
v -110 80.00026 -80
v -110 130 -80
v -110 80 -150.0002
v -110 80 -79.99969
v -59.99979 80 -150
v -110.0003 80 -150
v -110 80.00032 -150
v -70 130 -80
v -70 80 -80
v -59.99979 80 -80
v -60 80.00102 -80
v -60 130 -80
v -60 130 -150
v -60 130 -80.00023
v -60 79.99979 -150
v -60 80 -80
v -60 80 -149.9995
v -60 80.00102 -150
vn 0 0 1
vn 1 0 0
vn 0 0 -1
vn -1 0 0
usemtl COL_C8
f 41//4 42//4 43//4
f 44//5 45//5 46//5
f 44//5 47//5 48//5
f 44//5 49//5 50//5
f 44//5 51//5 52//5
f 41//4 53//4 54//4
f 41//4 55//4 42//4
f 56//6 57//6 58//6
f 56//6 59//6 60//6
f 61//7 62//7 63//7
f 60//7 64//7 65//7
f 41//4 61//4 66//4
f 67//6 68//6 69//6
f 70//7 71//7 72//7
f 70//7 73//7 74//7
f 70//7 75//7 76//7
f 70//7 77//7 78//7
f 67//6 79//6 80//6
f 67//6 81//6 68//6
f 82//4 83//4 84//4
f 82//4 85//4 86//4
f 87//5 88//5 89//5
f 86//5 90//5 91//5
f 67//6 87//6 92//6
o COL_8
v 70 130 140
v 70 130 150
v 70 159.9998 140
v 70 160 150
v 70 160 139.9999
v 110 160 150
v 110 160 140
v 70.00082 160 140
v 70 160 139.9998
v -70 130 -140
v -70 130 -150
v -70 159.9998 -140
v -70 160 -150
v -70 160 -139.9999
v -110 160 -150
v -110 160 -140
v -70.00082 160 -140
v -70 160 -139.9998
vn -1 0 0
vn 0 1 0
vn 1 0 0
usemtl COL_8
f 93//8 94//8 95//8
f 94//8 96//8 97//8
f 98//9 99//9 100//9
f 98//9 101//9 96//9
f 102//10 103//10 104//10
f 103//10 105//10 106//10
f 107//9 108//9 109//9
f 107//9 110//9 105//9
