o COL_17
v 110 130 140
v 70 130 140
v 110 160 140
v 70 160 140
v 70 130 80
v 70 80 80
v 70 80 149.9995
v 70 130 80.0002
v 70 79.99956 150.0003
v 110 130 80
v 110 80 80
v 69.99974 80 80
v 109.9999 130 80
v 70 80.0004 80
vn 0 0 -1
vn -1 0 0
usemtl COL_17
f 1//1 2//1 3//1
f 2//1 4//1 3//1
f 5//2 6//2 7//2
f 2//2 8//2 9//2
f 10//1 11//1 12//1
f 5//1 13//1 14//1
o COL_C5
v 110 130 140
v 110 130 80
v 70 130 80
v 70 130 80.00001
v 70 130 140
vn 0 1 0
usemtl COL_C5
f 15//3 16//3 17//3
f 15//3 18//3 19//3
o COL_C8
v 110 160 150
v 70.00012 160 150
v 110 79.99934 150
v 70 80 150
v 109.9999 80 150
v 70 160.0007 150
v 110 130 140
v 110 160 140
v 110 160 150.0001
v 110 159.9997 150
v 110 80.00102 150
v 110 80.00026 80
v 110 130 80
v 110 80 150.0002
v 110 80 79.99969
vn 0 0 1
vn 1 0 0
usemtl COL_C8
f 20//4 21//4 22//4
f 23//4 24//4 25//4
f 26//5 27//5 28//5
f 26//5 29//5 30//5
f 26//5 31//5 32//5
f 26//5 33//5 34//5
o COL_8
v 70 130 140
v 70 80.00621 149.999
v 70 160.0011 140
v 70 80 150
v 70 160 150
v 70 160 140.0004
v 110 160 150
v 110 160 140
v 70.00082 160 140
v 70 160 139.9998
vn -1 0 0
vn 0 1 0
usemtl COL_8
f 35//6 36//6 37//6
f 38//6 39//6 40//6
f 41//7 42//7 43//7
f 41//7 44//7 39//7
