o COL_C8
v 65 125 30
v -65 129.9996 30
v -65 125 30
v 65 130 30
v -65.01048 130 30
v -65 125 -30
v -65 130 -30
v 65.01048 130 -30
v 65 129.9996 -30
v 65 125 -30
v 69.99999 130 15.00017
v 70.00006 125 14.99998
v 70.00006 130.0001 14.99998
v 65 130 0
v 70.00006 130 15.00002
v 70.00006 124.9999 15.00002
v 69.99999 125 14.99983
v 65 125 0
v 70.00001 130 -14.99987
v 70 130 -15
v 65.00001 125 -0.0001735687
v 70 125 -15
v 64.99999 130 -29.99987
v 65 130 -30
v 69.99999 125 -15.00017
v -69.99999 130 -15.00017
v -70.00006 125 -14.99998
v -70.00006 130.0001 -14.99998
v -65 130 0
v -70.00006 130 -15.00002
v -70.00006 124.9999 -15.00002
v -69.99999 125 -14.99983
v -65 125 0
v -70.00001 130 14.99987
v -70 130 15
v -65.00001 125 0.0001735687
v -70 125 15
v -64.99999 130 29.99987
v -65 130 30
v -69.99999 125 15.00017
v -70.00002 130 14.99989
v -65 130 29.99978
v 64.99959 130 30
v -64.99974 130 0
v 65 130 30.00004
v 65 130 29.99978
v 70.00002 130 14.99989
v -65 130 -30.00009
v 70.00002 130 -14.99989
v 65 130 -29.99978
v -65 130 -29.99978
v -70.00002 130 -14.99989
v -64.99959 130 -30
vn 0 0 1
vn 0 0 -1
vn 0.9486823 0 0.3162306
vn 0.9486822 0 0.3162309
vn 0.9486822 0 -0.3162309
vn 0.9486823 0 -0.3162306
vn 0.9486823 0 0.3162307
vn 0.9486823 0 -0.3162307
vn -0.9486823 0 -0.3162306
vn -0.9486822 0 -0.3162309
vn -0.9486822 0 0.3162309
vn -0.9486823 0 0.3162306
vn -0.9486823 0 -0.3162307
vn -0.9486823 0 0.3162307
vn 0 1 0
usemtl COL_C8
f 1//1 2//1 3//1
f 1//1 4//1 5//1
f 6//2 7//2 8//2
f 6//2 9//2 10//2
f 1//3 11//3 4//3
f 1//4 12//4 13//4
f 14//5 15//5 16//5
f 14//6 17//6 18//6
f 14//7 18//7 19//7
f 20//3 21//3 22//3
f 20//8 22//8 23//8
f 24//6 25//6 10//6
f 6//9 26//9 7//9
f 6//10 27//10 28//10
f 29//11 30//11 31//11
f 29//12 32//12 33//12
f 29//13 33//13 34//13
f 35//9 36//9 37//9
f 35//14 37//14 38//14
f 39//12 40//12 3//12
f 29//15 41//15 42//15
f 29//15 39//15 43//15
f 14//15 44//15 45//15
f 14//15 46//15 47//15
f 14//15 48//15 29//15
f 14//15 49//15 50//15
f 29//15 51//15 52//15
f 14//15 24//15 53//15
o COL_8
v -65 125 30
v -65 110 30
v 65.00484 110 30
v 65 125 30
v -65.00468 125 30
v 65 110 30
v -65 125 -30
v 65.00468 125 -30
v -65 110 -30
v 65 125 -30
v 65 110 -30
v -65.00484 110 -30
v 65 109.9997 -30
v 65 110 -29.99876
v -65 125 29.99892
v -65 110 -29.99876
vn 0 0 1
vn 0 0 -1
vn 1 0 0
vn -1 0 0
usemtl COL_8
f 54//16 55//16 56//16
f 57//16 58//16 59//16
f 60//17 61//17 62//17
f 63//17 64//17 65//17
f 57//18 66//18 63//18
f 57//18 59//18 67//18
f 60//19 62//19 68//19
f 54//19 69//19 55//19
